<?xml version="1.0" encoding="UTF-8"?>
<svg xmlns="http://www.w3.org/2000/svg" version="1.1" viewBox="0 0 1264 848">
  <!-- Generator: Adobe Illustrator 29.8.9, SVG Export Plug-In . SVG Version: 2.1.1 Build 1)  -->
  <g id="Calque_1">
    <path d="M0,0h1264v848H0V0Z" fill="#dfbeb0"/>
    <path d="M761.44,508.99c2.91-1.03,4.08-1.53,7.16-1.82l.32.32c-2.26,1.25-4.63,1.86-7.1,2.61l-.38-1.11Z" fill="#dfbeb0"/>
    <path d="M838.96,209.07c1.81,2.45,1.04,7.3.71,10.22l-.76-.49c-.47-2.94-.12-6.68.05-9.72Z" fill="#dfbeb0"/>
    <path d="M493.09,127.96c3.82-1.58,4.59-1.38,8.91-.67-1.35,2.02-3.33,6.03-4.54,8.29-1.45-2.8-2.72-4.94-4.38-7.62Z" fill="#dfbeb0"/>
    <path d="M432.16,209.61l.92.93c.73,3.09.29,5.55-.02,8.71l-.68-.68c-.6-2.37-.3-6.38-.21-8.96Z" fill="#dfbeb0"/>
    <path d="M510.22,509.99c-2.04-.66-5.2-1.36-6.53-2.79,2.62-.04,4.48.79,6.98,1.62l-.44,1.17Z" fill="#dfbeb0"/>
    <g id="pied-gauche">
      <path d="M472.95,100.84c-27.48-1.84-42.27,12.67-54.52,35.2-12.89-23.81-35.53-35.8-60.14-16.6-10.44,8.14-14.09,21.53-14.93,34.44-21.84-28.79-56.98-16-60.18,18.77-.33,3.56.12,7.63.43,11.23-7.48-4.24-15.54-8.15-24.38-7.39-13.26,1.12-26.09,10.08-31.29,22.4-5.67,13.42,2.03,27.71,7.22,40.15-5.11-1.84-10.31-5.09-15.84-6.08-7.75-1.43-15.74.37-22.13,4.98-11.6,8.42-16.36,23.97-12.88,37.65,1.59,6.27,5.85,11.42,9.58,16.57,1.39,23.44,8.53,39.86,20.81,59.51-6.06,26.29-6.32,53.6-1.52,80.07,7.29,40.13,27.28,77.34,40.01,115.36,4.81,14.59,8.96,29.38,12.45,44.34,6.97,28.78,8.94,43.75,24.41,69.59,23.6,35.74,60.31,63.39,103.73,68.31,28.05,3.21,56.21-5.01,78.13-22.8,34.04-27.35,50.68-68.88,38.77-111.78-4.02-14.49-11.87-25.61-16.55-42.65-6.85-24.66-8.93-50.41-6.11-75.85,3.17-29.16,12.98-56.02,27.32-81.34,8.94-15.78,19.15-31.85,22.67-49.71,2.56-12.97,4.48-30.12,1.47-43.08-3.83-16.85-10.16-32.43-10.18-49.98-.01-12.72,1.29-24.52,4.11-36.93,2.36-10.38,5.29-21.26,6.4-31.8,4.25-40.24-26.8-78.43-66.88-82.57Z" fill="#ba7368"/>
      <path d="M483,546.3c-1.96-12.62-3.56-21.57-4.47-34.54-2.91-41.71,8.69-81.01,28.18-117.58,11.4-21.39,20.27-36.21,24.56-60.66,5.1-29.11-5.98-52.54-6.79-81-.59-20.78,4.42-42.81,5.2-63.97.71-22.77-5.7-44.07-21.53-60.89-32.69-34.74-81.36-17.28-82.06,30.91-.21,14.4,4.7,28.73,14.95,39.16,15.88,16.16,35.18,16.57,56.12,16.61-26.1,6.77-41.29,3.04-62.51-13.32.41,12.1-1.66,20-4.67,31.51,19.42-4.71,29.93-1.51,47.71,5.06-26.88-5.51-57.59-3.91-76.69,18.35-1.24,1.44-2.48,2.88-3.7,4.33,6.95-15.38,14.55-18.05,27.22-26.48.77-15.25-5.61-23.22-7.39-38.19-1.87-14.85-2.07-29.77-1.7-44.76.41-16.45-15.46-33.94-32.08-33.42-25.11.79-37.07,41.2-19.08,57.23,6.63,5.91,16.31,6.38,24.68,5.8l1.36,3.15c-15.37,5-23.41,1.98-36.31-6.23,5.95,18.94,9.39,28.84,3.04,48.9,18.26-2.74,39.91-4.8,57.79,1.58-59.71-5.67-121.33,19.32-162.68,62.15-5.36,5.56-10.62,11.77-15.74,17.59l-2.62-1.13c4.1-6.48,8.36-12.97,11.82-19.81-16.76,10.78-25.77,14.95-45.66,7.83,1.44,17.74,7.92,42.09,19.8,55.74-4.42,26.1-5.6,44.79-.55,71.2,8.94,46.79,30.96,88.24,46.78,133.08,9.4,26.65,12.25,54.35,21.53,79.33,3.86,10.54,9.09,20.53,15.56,29.71,20.36,28.57,52.92,49.97,87.65,55.69,24.76,3.98,50.08-2.13,70.3-16.97,21.09-15.21,36.01-38.15,40.19-63.93,5.22-32.12-7.28-64.26-25.47-90.3,2.07-1.84,4.58-1.67,7.25-1.74Z" fill="#f3f2ed"/>
      <path d="M483,546.3c-5.54-6.54-10.25-11.9-16.56-17.68-.86,2.35-1.36,2.53-3.54,3.85,4.66,4.87,8.95,10.07,12.85,15.57,2.07-1.84,4.58-1.67,7.25-1.74Z" fill="#ba7368"/>
      <path d="M432.56,508.99l-.38,1.11c8.48,3.64,15.71,9.05,22.87,14.84l2.24-3.48c-7.76-5.79-15.8-8.98-24.72-12.47Z" fill="#ba7368"/>
      <path d="M457.28,521.46l-2.24,3.48c2.49,2.35,5.54,5.09,7.86,7.54,2.18-1.32,2.67-1.51,3.54-3.85-3.01-2.55-6.02-4.8-9.16-7.17Z" fill="#ba7368"/>
      <path d="M236.42,307.6l-2.62-1.13c-3.01,4.79-5.7,9.79-8.03,14.95,4.14-4.6,7.05-8.78,10.64-13.82Z" fill="#ba7368"/>
      <path d="M400.72,177.5l-11.77,2.97,1.36,3.15c3.44-1.7,7.11-4.08,10.41-6.11Z" fill="#ba7368"/>
      <path d="M366,320.86c-1.62.51-2.85,1.2-4.27.83-8.58,28.29-22.79,48.1-49.5,62.38-11.56,6.32-24.2,10.42-37.26,12.1,2.21.12,3.5-.23,4.98.91-.67,1.13-.35.88-1.32,1.65,18.53-.26,42-9.82,56.24-21.6,18.24-15.08,28.47-32.82,31.13-56.27Z" fill="#ba7368"/>
      <path d="M392.83,335.54c-2.23-.69-3.94-1.72-6-.44,6.34,19.1,24.3,34.95,42.94,41.75,19.38,7.08,40.95,5.38,59.59-3.09-15.48,3.51-29.88,6.12-45.56,1.54-22.93-6.69-39.24-19.13-50.97-39.77Z" fill="#ba7368"/>
      <path d="M385.3,292.37c-2.16,9.54-3.58,21.12-1.58,30.77l4.12-1.02c-3.12-11.82-2.18-18.02-2.55-29.75Z" fill="#ba7368"/>
      <path d="M274.97,396.17c-8.41.12-16.45.26-24.7-1.51-1.8-.39-3.7-.99-5.51-.77,6.1,3.96,26.26,4.87,33.87,4.83.97-.77.65-.51,1.32-1.65-1.48-1.14-2.77-.8-4.98-.91Z" fill="#ba7368"/>
      <path d="M392.83,335.54c-2.45-5.1-3.61-7.93-4.98-13.42l-4.12,1.02c.72,3.77,1.57,8.48,3.1,11.96,2.05-1.29,3.77-.25,6,.44Z" fill="#ba7368"/>
      <path d="M364.4,295.82c-.63,8.5-1.15,17.52-2.66,25.87,1.42.38,2.65-.32,4.27-.83.71-8.69-.49-16.42-1.6-25.04Z" fill="#ba7368"/>
      <path d="M263.78,184.66c-6.51-.32-13.78.59-18.86,4.91-12.47,10.87-8.96,24.3-6.81,38.13,2.16,13.86,6.97,21.12,11.38,33.46,1.76,4.93-.5,20.29-1.22,26.39,5.9-5.7,12.01-11.19,18.31-16.45,8.86-7.43,16.89-12.52,22.12-23.13,3.42-8.36,4.84-16.13,6.73-24.87-13.73,17.53-29.55,23.44-51.07,15.57,59.99,6.8,56.26-47.03,19.41-54.01Z" fill="#f3f2ed"/>
      <path d="M322.89,145.17c-25.7-4.38-36.81,28.28-26.06,47.34,4.3,7.63,9.74,9.5,17.6,11.61,27.13,2.77,35.03-17.03,27.1-40.97-2.95-8.9-10.15-14.46-18.64-17.97Z" fill="#f3f2ed"/>
      <path d="M213.95,237.76c-15.9-.5-22.33,13.09-22.55,27.09-.31,19.7,11.77,27.96,29.93,28.42,37.35-7.04,25.35-47.98-7.39-55.51Z" fill="#f3f2ed"/>
      <path d="M349.66,187.34c-2.52,1.64-4.37,12.12-14.46,16.96-13.01,6.24-23.95,3.77-36.94-.14,4.91,14.43,6.1,22.32,3.06,37.61-.62,2.15-.83,2.54-.76,4.73,2.1-.27,18.18-8.13,21.95-9.65,9.09-3.69,18.44-6.71,27.97-9.02-3.56-16.12-.63-24.78-.83-40.48Z" fill="#f3f2ed"/>
      <path d="M422.81,189.93c-.8,4.96,2.08,17.69,3.39,22.75,2.45-3.26-2.02-18.7-3.39-22.75Z" fill="#f3f2ed"/>
      <path d="M297.17,242.43c-2.08,1.99-4.05,6.66-4.99,9.43,4.06-2,4.5-5.46,4.99-9.43Z" fill="#f3f2ed"/>
    </g>
    <g id="pied-droit">
      <path d="M791.45,100.84c27.48-1.84,42.27,12.67,54.52,35.2,12.89-23.81,35.53-35.8,60.14-16.6,10.44,8.14,14.09,21.53,14.93,34.44,21.84-28.79,56.98-16,60.18,18.77.33,3.56-.12,7.63-.43,11.23,7.48-4.24,15.54-8.15,24.38-7.39,13.26,1.12,26.09,10.08,31.29,22.4,5.67,13.42-2.03,27.71-7.22,40.15,5.11-1.84,10.31-5.09,15.84-6.08,7.75-1.43,15.74.37,22.13,4.98,11.6,8.42,16.36,23.97,12.88,37.65-1.59,6.27-5.85,11.42-9.58,16.57-1.39,23.44-8.53,39.86-20.81,59.51,6.06,26.29,6.32,53.6,1.52,80.07-7.29,40.13-27.28,77.34-40.01,115.36-4.81,14.59-8.96,29.38-12.45,44.34-6.97,28.78-8.94,43.75-24.41,69.59-23.6,35.74-60.31,63.39-103.73,68.31-28.05,3.21-56.21-5.01-78.13-22.8-34.04-27.35-50.68-68.88-38.77-111.78,4.02-14.49,11.87-25.61,16.55-42.65,6.85-24.66,8.93-50.41,6.11-75.85-3.17-29.16-12.98-56.02-27.32-81.34-8.94-15.78-19.15-31.85-22.67-49.71-2.56-12.97-4.48-30.12-1.47-43.08,3.83-16.85,10.16-32.43,10.18-49.98.01-12.72-1.29-24.52-4.11-36.93-2.36-10.38-5.29-21.26-6.4-31.8-4.25-40.24,26.8-78.43,66.88-82.57Z" fill="#ba7368"/>
      <path d="M781.4,546.3c1.96-12.62,3.56-21.57,4.47-34.54,2.91-41.71-8.69-81.01-28.18-117.58-11.4-21.39-20.27-36.21-24.56-60.66-5.1-29.11,5.98-52.54,6.79-81,.59-20.78-4.42-42.81-5.2-63.97-.71-22.77,5.7-44.07,21.53-60.89,32.69-34.74,81.36-17.28,82.06,30.91.21,14.4-4.7,28.73-14.95,39.16-15.88,16.16-35.18,16.57-56.12,16.61,26.1,6.77,41.29,3.04,62.51-13.32-.41,12.1,1.66,20,4.67,31.51-19.42-4.71-29.93-1.51-47.71,5.06,26.88-5.51,57.59-3.91,76.69,18.35,1.24,1.44,2.48,2.88,3.7,4.33-6.95-15.38-14.55-18.05-27.22-26.48-.77-15.25,5.61-23.22,7.39-38.19,1.87-14.85,2.07-29.77,1.7-44.76-.41-16.45,15.46-33.94,32.08-33.42,25.11.79,37.07,41.2,19.08,57.23-6.63,5.91-16.31,6.38-24.68,5.8l-1.36,3.15c15.37,5,23.41,1.98,36.31-6.23-5.95,18.94-9.39,28.84-3.04,48.9-18.26-2.74-39.91-4.8-57.79,1.58,59.71-5.67,121.33,19.32,162.68,62.15,5.36,5.56,10.62,11.77,15.74,17.59l2.62-1.13c-4.1-6.48-8.36-12.97-11.82-19.81,16.76,10.78,25.77,14.95,45.66,7.83-1.44,17.74-7.92,42.09-19.8,55.74,4.42,26.1,5.6,44.79.55,71.2-8.94,46.79-30.96,88.24-46.78,133.08-9.4,26.65-12.25,54.35-21.53,79.33-3.86,10.54-9.09,20.53-15.56,29.71-20.36,28.57-52.92,49.97-87.65,55.69-24.76,3.98-50.08-2.13-70.3-16.97-21.09-15.21-36.01-38.15-40.19-63.93-5.22-32.12,7.28-64.26,25.47-90.3-2.07-1.84-4.58-1.67-7.25-1.74Z" fill="#f3f2ed"/>
      <path d="M781.4,546.3c5.54-6.54,10.25-11.9,16.56-17.68.86,2.35,1.36,2.53,3.54,3.85-4.66,4.87-8.95,10.07-12.85,15.57-2.07-1.84-4.58-1.67-7.25-1.74Z" fill="#ba7368"/>
      <path d="M831.84,508.99l.38,1.11c-8.48,3.64-15.71,9.05-22.87,14.84l-2.24-3.48c7.76-5.79,15.8-8.98,24.72-12.47Z" fill="#ba7368"/>
      <path d="M807.12,521.46l2.24,3.48c-2.49,2.35-5.54,5.09-7.86,7.54-2.18-1.32-2.67-1.51-3.54-3.85,3.01-2.55,6.02-4.8,9.16-7.17Z" fill="#ba7368"/>
      <path d="M1027.98,307.6l2.62-1.13c3.01,4.79,5.7,9.79,8.03,14.95-4.14-4.6-7.05-8.78-10.64-13.82Z" fill="#ba7368"/>
      <path d="M863.68,177.5l11.77,2.97-1.36,3.15c-3.44-1.7-7.11-4.08-10.41-6.11Z" fill="#ba7368"/>
      <path d="M898.4,320.86c1.62.51,2.85,1.2,4.27.83,8.58,28.29,22.79,48.1,49.5,62.38,11.56,6.32,24.2,10.42,37.26,12.1-2.21.12-3.5-.23-4.98.91.67,1.13.35.88,1.32,1.65-18.53-.26-42-9.82-56.24-21.6-18.24-15.08-28.47-32.82-31.13-56.27Z" fill="#ba7368"/>
      <path d="M871.57,335.54c2.23-.69,3.94-1.72,6-.44-6.34,19.1-24.3,34.95-42.94,41.75-19.38,7.08-40.95,5.38-59.59-3.09,15.48,3.51,29.88,6.12,45.56,1.54,22.93-6.69,39.24-19.13,50.97-39.77Z" fill="#ba7368"/>
      <path d="M879.1,292.37c2.16,9.54,3.58,21.12,1.58,30.77l-4.12-1.02c3.12-11.82,2.18-18.02,2.55-29.75Z" fill="#ba7368"/>
      <path d="M989.43,396.17c8.41.12,16.45.26,24.7-1.51,1.8-.39,3.7-.99,5.51-.77-6.1,3.96-26.26,4.87-33.87,4.83-.97-.77-.65-.51-1.32-1.65,1.48-1.14,2.77-.8,4.98-.91Z" fill="#ba7368"/>
      <path d="M871.57,335.54c2.45-5.1,3.61-7.93,4.98-13.42l4.12,1.02c-.72,3.77-1.57,8.48-3.1,11.96-2.05-1.29-3.77-.25-6,.44Z" fill="#ba7368"/>
      <path d="M900,295.82c.63,8.5,1.15,17.52,2.66,25.87-1.42.38-2.65-.32-4.27-.83-.71-8.69.49-16.42,1.6-25.04Z" fill="#ba7368"/>
      <path d="M1000.62,184.66c6.51-.32,13.78.59,18.86,4.91,12.47,10.87,8.96,24.3,6.81,38.13-2.16,13.86-6.97,21.12-11.38,33.46-1.76,4.93.5,20.29,1.22,26.39-5.9-5.7-12.01-11.19-18.31-16.45-8.86-7.43-16.89-12.52-22.12-23.13-3.42-8.36-4.84-16.13-6.73-24.87,13.73,17.53,29.55,23.44,51.07,15.57-59.99,6.8-56.26-47.03-19.41-54.01Z" fill="#f3f2ed"/>
      <path d="M941.51,145.17c25.7-4.38,36.81,28.28,26.06,47.34-4.3,7.63-9.74,9.5-17.6,11.61-27.13,2.77-35.03-17.03-27.1-40.97,2.95-8.9,10.15-14.46,18.64-17.97Z" fill="#f3f2ed"/>
      <path d="M1050.45,237.76c15.9-.5,22.33,13.09,22.55,27.09.31,19.7-11.77,27.96-29.93,28.42-37.35-7.04-25.35-47.98,7.39-55.51Z" fill="#f3f2ed"/>
      <path d="M914.74,187.34c2.52,1.64,4.37,12.12,14.46,16.96,13.01,6.24,23.95,3.77,36.94-.14-4.91,14.43-6.1,22.32-3.06,37.61.62,2.15.83,2.54.76,4.73-2.1-.27-18.18-8.13-21.95-9.65-9.09-3.69-18.44-6.71-27.97-9.02,3.56-16.12.63-24.78.83-40.48Z" fill="#f3f2ed"/>
      <path d="M841.59,189.93c.8,4.96-2.08,17.69-3.39,22.75-2.45-3.26,2.02-18.7,3.39-22.75Z" fill="#f3f2ed"/>
      <path d="M967.23,242.43c2.08,1.99,4.05,6.66,4.99,9.43-4.06-2-4.5-5.46-4.99-9.43Z" fill="#f3f2ed"/>
    </g>
  </g>
  <g id="zone-tete-d">
    <path d="M469.21,115.98c-23.21,2.79-34.53,21.87-35.74,41.1-1.32,21.01,9.04,48.63,43.35,48.05,41.64-.69,46.17-35.93,36.25-58.06-9.05-20.19-22.95-33.61-43.87-31.09Z" fill="#8b79c0" opacity=".9"/>
    <path d="M384.63,123.15c-13.87.32-21.65,10.94-23.46,22.23-1.98,12.34,2.55,29.24,22.85,30.87,24.64,1.97,29.33-18.58,24.74-32.22-4.19-12.45-11.63-21.17-24.13-20.88Z" fill="#8b79c0" opacity=".9"/>
    <path d="M317.57,152.4c-12.4.29-19.38,9.42-21.02,19.11-1.79,10.59,2.24,25.1,20.4,26.46,22.03,1.66,26.26-15.99,22.17-27.69-3.73-10.68-10.38-18.15-21.55-17.89Z" fill="#8b79c0" opacity=".9"/>
    <path d="M255.54,189.84c-11.88,3.57-16.18,14.22-15.19,24.01,1.08,10.69,8.82,23.6,26.69,20.1,21.68-4.24,21.08-22.38,14.03-32.58-6.43-9.31-14.82-14.75-25.53-11.53Z" fill="#8b79c0" opacity=".9"/>
    <path d="M208.08,246.12c-10.6,4.54-13.45,14.82-11.52,23.75,2.12,9.76,10.61,20.87,26.74,15.77,19.58-6.19,17.12-22.87,9.55-31.55-6.91-7.92-15.23-12.07-24.78-7.98Z" fill="#8b79c0" opacity=".9"/>
  </g>
  <g id="zone-tete-g">
    <path d="M795.15,115.98c23.21,2.79,34.53,21.87,35.74,41.1,1.32,21.01-9.04,48.63-43.35,48.05-41.64-.69-46.17-35.93-36.25-58.06,9.05-20.19,22.95-33.61,43.87-31.09Z" fill="#8b79c0" opacity=".9"/>
    <path d="M879.72,123.15c13.87.32,21.65,10.94,23.46,22.23,1.98,12.34-2.55,29.24-22.85,30.87-24.64,1.97-29.33-18.58-24.74-32.22,4.19-12.45,11.63-21.17,24.13-20.88Z" fill="#8b79c0" opacity=".9"/>
    <path d="M946.79,152.4c12.4.29,19.38,9.42,21.02,19.11,1.79,10.59-2.24,25.1-20.4,26.46-22.03,1.66-26.26-15.99-22.17-27.69,3.73-10.68,10.38-18.15,21.55-17.89Z" fill="#8b79c0" opacity=".9"/>
    <path d="M1008.82,189.84c11.88,3.57,16.18,14.22,15.19,24.01-1.08,10.69-8.82,23.6-26.69,20.1-21.68-4.24-21.08-22.38-14.03-32.58,6.43-9.31,14.82-14.75,25.53-11.53Z" fill="#8b79c0" opacity=".9"/>
    <path d="M1056.28,246.12c10.6,4.54,13.45,14.82,11.52,23.75-2.12,9.76-10.61,20.87-26.74,15.77-19.58-6.19-17.12-22.87-9.55-31.55,6.91-7.92,15.23-12.07,24.78-7.98Z" fill="#8b79c0" opacity=".9"/>
  </g>
  <g id="zone-diaphragme-d">
    <path d="M237.1,425.11c-10.38,0-19.11-1.02-25.17-1.08-2.99-.03-2.03-34.63-2.03-34.63.36.05,34.45,5.01,70.12-2.31,25.27-5.19,31.43-8.56,43.7-15.28,5.32-2.91,11.94-6.54,21.21-10.91,28.54-13.47,56.05-7.09,101.64,3.48,41.06,9.52,87.13-17.35,92.25-20.44,0,0-3.23,14.38-9.58,26.28-4.77,8.94-9.5,19.85-10.97,20.47-21.63,9.08-50.94,13.42-79.37,6.82-43.81-10.16-62.27-13.96-79.45-5.85-8.34,3.94-14.21,7.15-19.39,9.99-15.06,8.25-24.26,12.83-53.19,18.76-17.78,3.65-35.35,4.71-49.76,4.71Z" fill="#f0b8a8" opacity=".9"/>
  </g>
  <g id="zone-diaphragme-g">
    <path d="M1027.09,425.11c10.38,0,19.11-1.02,25.17-1.08,2.99-.03,2.03-34.63,2.03-34.63-.36.05-34.45,5.01-70.12-2.31-25.27-5.19-31.43-8.56-43.7-15.28-5.32-2.91-11.94-6.54-21.21-10.91-28.54-13.47-56.05-7.09-101.64,3.48-41.06,9.52-87.13-17.35-92.25-20.44,0,0,3.23,14.38,9.58,26.28,4.77,8.94,9.5,19.85,10.97,20.47,21.63,9.08,50.94,13.42,79.37,6.82,43.81-10.16,62.27-13.96,79.45-5.85,8.34,3.94,14.21,7.15,19.39,9.99,15.06,8.25,24.26,12.83,53.19,18.76,17.78,3.65,35.35,4.71,49.76,4.71Z" fill="#f0b8a8" opacity=".9"/>
  </g>
  <g id="zone-bassin-d">
    <path d="M300.27,606.64s3.29-61.47,74.4-68.3,108.01,36.77,111.7,68.3-11.61,85.19-66.69,93.91-85.17-23.48-98.29-37.57-21.36-37.57-21.11-56.35Z" fill="#acb9bc"/>
  </g>
  <g id="zone-bassin-g">
    <path d="M964.39,606.64s-3.29-61.47-74.4-68.3c-71.11-6.83-108.01,36.77-111.7,68.3-3.68,31.53,11.61,85.19,66.69,93.91,55.07,8.72,85.17-23.48,98.29-37.57,13.13-14.09,21.36-37.57,21.11-56.35Z" fill="#acb9bc"/>
  </g>
  <g id="zone-bassin-ancrage-d">
    <path d="M486.8,675.13c0,20.8-13.85,49.24-26.06,57.62-18.6,12.77-42.64,16.28-65.38,13.67-12.95-1.47-33.63-20.38-50.59-44.31,14.14,8.52,29.75,14.52,45.81,17.17,24.76,3.98,50.08-2.13,70.3-16.97,10.28-7.41,19.09-16.66,25.91-27.18Z" fill="#acb9bc"/>
  </g>
  <g id="zone-bassin-ancrage-g">
    <path d="M803.69,702.31c20.22,14.83,45.54,20.95,70.3,16.97,16.07-2.65,31.67-8.65,45.81-17.17-16.96,23.93-37.64,42.84-50.59,44.31-22.74,2.6-46.78-.9-65.38-13.67-12.21-8.38-26.06-36.82-26.06-57.62,6.82,10.52,15.63,19.77,25.91,27.18Z" fill="#acb9bc"/>
  </g>
  <g id="zone-cou-d">
    <path d="M489.45,243.29c-5.36,0-10.85-.4-16.4-1.32-17.23-2.87-34.78-8.33-46.13-12.26,0,0-.03-11.18,0-17.03.04-8.92-1.58-14.45-1.58-14.45h0c.27.11,27.46,10.97,52.48,15.13,24.56,4.09,50.55-7.46,58.31-11.15,0,0-1.98,10.36-4.25,20.57-1.12,5.06-1.86,13.64-1.86,13.64-10.96,3.59-25.19,6.87-40.57,6.87Z" fill="#ac98ae" opacity=".9"/>
  </g>
  <g id="zone-cou-g">
    <path d="M774.76,243.29c5.36,0,10.85-.4,16.4-1.32,17.23-2.87,34.78-8.33,46.13-12.26,0,0,.03-11.18,0-17.03-.04-8.92,1.58-14.45,1.58-14.45h0c-.27.11-27.46,10.97-52.48,15.13-24.56,4.09-50.55-7.46-58.31-11.15,0,0,1.98,10.36,4.25,20.57,1.12,5.06,1.86,13.64,1.86,13.64,10.96,3.59,25.19,6.87,40.57,6.87Z" fill="#ac98ae" opacity=".9"/>
  </g>
  <g id="zone-digestive-d">
    <path d="M462.92,369.36c-.37,0-.74-.02-1.11-.06-5.49-.61-9.45-5.55-8.84-11.04l10.75-97.43c.61-5.49,5.56-9.45,11.04-8.84,5.49.61,9.45,5.55,8.84,11.04l-10.75,97.43c-.56,5.12-4.9,8.9-9.93,8.9Z" fill="#8fb1a4" opacity=".9"/>
    <path d="M462.37,416.36s-12.45-9.96-84.42-4.11c-61.91,5.03-124.84,19.95-132.02,42.55-7.18,22.6,21.69,65.43,48.18,68.45,39.72,4.53,134.3-1.95,153.4-15.74,16.01-11.56,46.03-82.71,14.86-91.15Z" fill="#8fb1a4" opacity=".9"/>
  </g>
  <g id="zone-digestive-g">
    <path d="M801.75,369.36c.37,0,.74-.02,1.11-.06,5.49-.61,9.45-5.55,8.84-11.04l-10.75-97.43c-.61-5.49-5.56-9.45-11.04-8.84-5.49.61-9.45,5.55-8.84,11.04l10.75,97.43c.56,5.12,4.9,8.9,9.93,8.9Z" fill="#8fb1a4" opacity=".9"/>
    <path d="M802.29,416.36s12.45-9.96,84.42-4.11c61.91,5.03,124.84,19.95,132.02,42.55,7.18,22.6-21.69,65.43-48.18,68.45-39.72,4.53-134.3-1.95-153.4-15.74-16.01-11.56-46.03-82.71-14.86-91.15Z" fill="#8fb1a4" opacity=".9"/>
  </g>
  <g id="zone-poumon-d">
    <path d="M363.28,253.26c-53.45,9.84-110.33,55.02-113.07,78.44s10.78,39.66,49.52,39.66c46.01,0,165.23-12.31,189.82-39.24,22.93-25.1,18.12-57.68-16.58-70.83-31.32-11.87-65.83-16.1-109.68-8.03Z" fill="#f5d0c8" opacity=".9"/>
  </g>
  <g id="zone-poumon-g">
    <path d="M901.57,253.26c53.45,9.84,110.33,55.02,113.07,78.44s-10.78,39.66-49.52,39.66c-46.01,0-165.23-12.31-189.82-39.24-22.93-25.1-18.12-57.68,16.58-70.83,31.32-11.87,65.83-16.1,109.68-8.03Z" fill="#f5d0c8" opacity=".9"/>
  </g>
  <g id="zone-foie-d">
    <path d="M290.91,436.04c-26.31,6.47-48.64,15.04-49.99,30.44-1.35,15.4,5.91,42.51,24.98,42.51,22.65,0,81.35-8.1,93.46-25.81,11.29-16.51,8.92-37.94-8.16-46.6-15.42-7.81-38.69-5.85-60.28-.54Z" fill="#cde499" opacity=".9"/>
  </g>
  <g id="zone-surrenales-g">
    <circle cx="891.12" cy="470.56" r="19.01" fill="#75bdc1" opacity=".9"/>
  </g>
  <g id="zone-surrenales-d">
    <circle cx="374.28" cy="470.56" r="19.01" fill="#75bdc1" opacity=".9"/>
  </g>
  <g id="zone-thymus-g">
    <circle cx="792.45" cy="286.93" r="17.88" fill="#9cac78" opacity=".9"/>
  </g>
  <g id="zone-thyroide-g">
    <path d="M745.21,265.73s36.95,14.9,94.19-3.22c0,0,13.55,66.44-70.48,111.03" fill="none" stroke="#b0bd93" stroke-linecap="round" stroke-linejoin="round" stroke-width="20"/>
  </g>
  <g id="zone-thymus-d">
    <circle cx="470.7" cy="286.93" r="17.88" fill="#9cac78" opacity=".9"/>
  </g>
  <g id="zone-thyroide-d">
    <path d="M517.94,265.73s-36.95,14.9-94.19-3.22c0,0-13.55,66.44,70.48,111.03" fill="none" stroke="#b0bd93" stroke-linecap="round" stroke-linejoin="round" stroke-width="20"/>
  </g>
  <g id="zone-pancreas-d">
    <path d="M486.91,503.98c-32.24,2.59-70.41,3.22-82.17-3.81-16.17-9.66-15.76-25.72,4.69-35.54,18.45-8.87,47.95-12.27,75.74-12.88,2.43-.05,4.84-.1,7.21-.12,0,0-3.28,16.76-4.5,27.08s-.97,25.28-.97,25.28Z" fill="#849757" opacity=".9"/>
  </g>
  <g id="zone-pancreas-g">
    <path d="M777.04,503.98c32.24,2.59,70.41,3.22,82.17-3.81,16.17-9.66,15.76-26.72-4.69-36.54-18.45-8.87-47.95-11.27-75.74-11.88-2.43-.05-4.84-.1-7.21-.12,0,0,3.28,16.76,4.5,27.08,1.21,10.32.97,25.28.97,25.28Z" fill="#849757" opacity=".9"/>
  </g>
  <g id="zone-estomac-d">
    <path d="M492.38,450.89c-18.88.04-35.22-2.43-42.21-6.61-16.17-9.66-15.76-25.72,4.69-35.54,14.77-7.1,36.63-9.69,59.01-11.16,0,0-8.57,17.32-12.68,26.66s-8.81,26.66-8.81,26.66Z" fill="#8fb1a4" opacity=".9"/>
  </g>
  <g id="zone-estomac-g">
    <path d="M771.83,450.89c26.13,4.17,70.65,7.47,84.21,2.39,17.64-6.61,25.53-34.47-5.69-46.54-15.29-5.91-77.63-7.69-100.01-9.16,0,0,8.57,17.32,12.68,26.66,4.12,9.34,8.81,26.66,8.81,26.66Z" fill="#8fb1a4" opacity=".9"/>
  </g>
  <g id="zone-rate-g">
    <path d="M983.23,508.22c-21.92.32-34.85-15.02-38.4-31.69-3.88-18.22,2.26-43.59,34.22-47.17,38.79-4.34,47.45,25.93,41.02,46.46-5.86,18.73-17.09,32.11-36.85,32.4Z" fill="#b5d39a" opacity=".9"/>
  </g>
  <g id="zone-oesophage-g">
    <path d="M797.91,345.58c-5.03,0-9.36-3.79-9.93-8.9l-7.58-73.66c-.61-5.49,3.35-10.43,8.84-11.04,5.47-.61,10.43,3.35,11.04,8.84l7.58,73.66c.61,5.49-3.35,10.43-8.84,11.04-.37.04-.74.06-1.11.06Z" fill="#9aab73" opacity=".9"/>
  </g>
  <g id="zone-cardia-g">
    <circle cx="801.61" cy="362.39" r="13.48" fill="#cde499"/>
  </g>
  <g id="zone-oesophage-d">
    <path d="M466.25,345.58c5.03,0,9.36-3.79,9.93-8.9l7.58-73.66c.61-5.49-3.35-10.43-8.84-11.04-5.47-.61-10.43,3.35-11.04,8.84l-7.58,73.66c-.61,5.49,3.35,10.43,8.84,11.04.37.04.74.06,1.11.06Z" fill="#9aab73" opacity=".9"/>
  </g>
  <g id="zone-cardia-d">
    <circle cx="462.55" cy="362.39" r="13.48" fill="#cde499"/>
  </g>
  <g id="zone-gros-intestin-g">
    <path d="M760.59,576.91c.61-.2,1.21-.45,1.8-.75.59-.3,60.12-30.07,140.54-10.4,8.87,2.17,19.69,6.27,20.93,13.5.86,5.03-.49,25.02-54.13,70.85-23.34,19.95-47.54,36.94-57.96,44.05-10.37-5.21-34.41-23.03-37.62-77.08-.41-6.89-6.35-12.16-13.22-11.74-6.89.41-11.26,7.57-11.26,14.48-.02,32.43,12.48,53.92,25.64,69.99,16.19,19.77,33.8,30.2,35.06,30.51l5.26,1.28,4.53-2.96c1.36-.89,33.7-22.11,65.63-49.37,46.29-39.52,66.8-70.34,62.71-94.23-2.83-16.53-16.16-27.82-39.63-33.57-60.82-14.88-110.37-4.58-136.92,4.09,0,0-2.02,8.16-4.33,14.68-2.45,6.93-7.04,16.67-7.04,16.67Z" fill="#7084ff" opacity=".9"/>
  </g>
  <g id="zone-gros-intestin-d">
    <path d="M499.64,567.51c-2.39.9-5.07,1.08-7.72.35-1.16-.32-117.48-31.38-159.67,22.96-11.48,14.78-10.81,36,1.99,63.06,10.55,22.29,25.55,39.79,25.7,39.96,4.51,5.22,3.94,13.11-1.28,17.63-2.36,2.04-5.28,3.05-8.18,3.05-3.5,0-6.97-1.46-9.44-4.31-2.87-3.31-69.76-81.64-28.54-134.72,45.87-59.08,149.75-40.21,178.64-33.57,2.8,9.87,2.76,9.71,3.76,12.99s4.74,12.6,4.74,12.6Z" fill="#7084ff" opacity=".9"/>
  </g>
  <g id="zone-intestin-grele-g">
    <path d="M890.07,590.98s-3.65-18.71-41.92-22.39c-38.26-3.68-58.12,19.79-60.11,36.75-1.98,16.97,1.55,43.96,31.18,48.66,29.64,4.69,46.41-14.46,53.47-22.04s22.56-29.95,17.37-40.98Z" fill="#6371c2" opacity=".9"/>
  </g>
  <g id="zone-intestin-grele-d">
    <path d="M350.5,641.28s-13.54-39.37,29.3-61.69c42.84-22.33,77.04-4.36,87.35,14.47,10.31,18.83,14.34,56.35-17.97,75.79-32.31,19.44-59.34,6.9-71.15,1.4s-22.92-18.13-27.53-29.96Z" fill="#6371c2" opacity=".9"/>
  </g>
  <g id="zone-vesicule-d">
    <circle cx="312.53" cy="530.48" r="19.01" fill="#7ca1a3" opacity=".9"/>
  </g>
  <g id="zone-sinus-d">
    <path d="M231.99,237.75c-4.1-1.8-8.28-4.01-12.67-4.8-7.75-1.43-15.74.37-22.13,4.98-11.6,8.42-16.36,23.97-12.88,37.65,0,0,12.68-6.14,27.22-18.21,14.53-12.07,20.46-19.62,20.46-19.62Z" fill="#ff896d" opacity=".9"/>
    <path d="M280.37,182.09c-2.18-1.16-4.41-2.24-6.69-3.14-4.59-1.81-9.39-2.91-14.45-2.47-13.26,1.12-26.09,10.08-31.29,22.4-2.5,5.92-2.4,12.01-1.06,18.04,0,0,19.98-3.86,32.28-11.78,12.3-7.92,21.21-23.05,21.21-23.05Z" fill="#ff896d" opacity=".9"/>
    <path d="M337.92,147.79c-21.79-20.53-51.8-7.15-54.75,24.86,0,0,15.15-2.48,30.99-9.41s23.75-15.44,23.75-15.44Z" fill="#ff896d" opacity=".9"/>
    <path d="M413.3,127.9c-13.3-18.13-33.4-25.33-55.01-8.47-7.99,6.23-12,15.53-13.82,25.33,0,0,16.25-.06,37.9-5.46s30.94-11.4,30.94-11.4Z" fill="#ff896d" opacity=".9"/>
    <path d="M517.51,122.48c-11.8-11.8-27.35-19.86-44.57-21.64-23.49-1.57-37.71,8.8-48.99,25.92,0,0,16.1,10.44,48.97,8.83s44.59-13.11,44.59-13.11Z" fill="#ff896d" opacity=".9"/>
  </g>
  <g id="zone-sinus-g">
    <path d="M1032.27,237.75c4.1-1.8,8.28-4.01,12.67-4.8,7.75-1.43,15.74.37,22.13,4.98,11.6,8.42,16.36,23.97,12.88,37.65,0,0-12.68-6.14-27.22-18.21-14.53-12.07-20.46-19.62-20.46-19.62Z" fill="#ff896d" opacity=".9"/>
    <path d="M983.89,182.09c2.18-1.16,4.41-2.24,6.69-3.14,4.59-1.81,9.39-2.91,14.45-2.47,13.26,1.12,26.09,10.08,31.29,22.4,2.5,5.92,2.4,12.01,1.06,18.04,0,0-19.98-3.86-32.28-11.78-12.3-7.92-21.21-23.05-21.21-23.05Z" fill="#ff896d" opacity=".9"/>
    <path d="M926.34,147.79c21.79-20.53,51.8-7.15,54.75,24.86,0,0-15.15-2.48-30.99-9.41-15.85-6.93-23.75-15.44-23.75-15.44Z" fill="#ff896d" opacity=".9"/>
    <path d="M850.96,127.9c13.3-18.13,33.4-25.33,55.01-8.47,7.99,6.23,12,15.53,13.82,25.33,0,0-16.25-.06-37.9-5.46-21.65-5.4-30.94-11.4-30.94-11.4Z" fill="#ff896d" opacity=".9"/>
    <path d="M746.74,122.48c11.8-11.8,27.35-19.86,44.57-21.64,23.49-1.57,37.71,8.8,48.99,25.92,0,0-16.1,10.44-48.97,8.83-32.87-1.61-44.59-13.11-44.59-13.11Z" fill="#ff896d" opacity=".9"/>
  </g>
  <g id="zone-nez-d">
    <path d="M473.37,212.56c-3.88-4.46-8.68-28.85-12.67-52.54-2.77-16.47-4.95-54.61-5.04-56.23-.03-.56-.19-1.33.02-1.66.39-.62,12.03-3.07,24.92-.07.1.02.02.21.02.32.02.38,2.19,38.38,4.73,53.49,6.71,39.86,12.53,52.02,15.4,55.72.39.51,1.66,1.47,1.05,1.58-15.02,2.54-27.93-.03-28.43-.6Z" fill="#ffb8a7" opacity=".9"/>
    <path d="M477.33,195.07c-.68,0-1.35,0-2.04-.01-26.43-.31-45.2-4.75-53.08-9.19-2.06-1.16-3.85-26.86-1.7-26.71s4.83,1.84,8.13,3.19c6.94,2.82,18.07,7.77,46.94,7.72.59,0,1.18.01,1.77.01,36.18,0,53.51-13.24,53.68-13.37,1.58-1.09,3.72-2.27,5.77-2.62,0,0,1.74,6.12,2.75,13.06.88,6.02,1.11,12.96.52,13.35-9.56,6.18-30.74,14.57-62.75,14.57Z" fill="#ffb8a7" opacity=".9"/>
  </g>
  <g id="zone-nez-g">
    <path d="M791.06,212.56c3.88-4.46,8.68-28.85,12.67-52.54,2.77-16.47,4.95-54.61,5.04-56.23.03-.56.19-1.33-.02-1.66-.39-.62-12.03-3.07-24.92-.07-.1.02-.02.21-.02.32-.02.38-2.19,38.38-4.73,53.49-6.71,39.86-12.53,52.02-15.4,55.72-.39.51-1.66,1.47-1.05,1.58,15.02,2.54,27.93-.03,28.43-.6Z" fill="#ffb8a7" opacity=".9"/>
    <path d="M787.11,195.07c.68,0,1.35,0,2.04-.01,26.43-.31,45.2-4.75,53.08-9.19,2.06-1.16,3.85-26.86,1.7-26.71s-4.83,1.84-8.13,3.19c-6.94,2.82-18.07,7.77-46.94,7.72-.59,0-1.18.01-1.77.01-36.18,0-53.51-13.24-53.68-13.37-1.58-1.09-3.72-2.27-5.77-2.62,0,0-1.74,6.12-2.75,13.06-.88,6.02-1.11,12.96-.52,13.35,9.56,6.18,30.74,14.57,62.75,14.57Z" fill="#ffb8a7" opacity=".9"/>
  </g>
  <g id="zone-amygdales-d">
    <path d="M530.32,233.45c-12.29,3.78-27.7,7.24-42.93,7.24-3.69,0-7.36-.2-10.99-.65-19.08-2.38-37.88-8.52-49.48-12.88,0,0,.15-8.39,0-14.47-.15-6.08-1.28-13.01-1.28-13.01,0,0,27.43,12.27,53.85,15.56,20.11,2.5,43.64-5.21,56.06-10.09,0,0-1.51,6.83-3.3,15.62s-1.94,12.69-1.94,12.69Z" fill="#ac98ae" opacity=".9"/>
  </g>
  <g id="zone-amygdales-g">
    <path d="M734.23,233.45c12.29,3.78,27.7,7.24,42.93,7.24,3.69,0,7.36-.2,10.99-.65,19.08-2.38,37.88-8.52,49.48-12.88,0,0-.15-8.39,0-14.47.15-6.08,1.28-13.01,1.28-13.01,0,0-27.43,12.27-53.85,15.56-20.11,2.5-43.64-5.21-56.06-10.09,0,0,1.51,6.83,3.3,15.62,1.79,8.8,1.94,12.69,1.94,12.69Z" fill="#ac98ae" opacity=".9"/>
  </g>
  <g id="zone-oreilles-d">
    <path d="M247.77,276.49c5.97-1.2,26.15-6.02,38.81-19.64l5.6-4.99s1.25-4.63,2.67-6.42,2.32-3.01,2.32-3.01c0,0,1.41-2.95,1.56-8.69.1-3.94-.31-9.35-.58-12.36-.12-1.37-5.53,11.92-23.27,20.75-8.87,4.42-24.3,8.17-31.62,9.74,0,0,3.85,7.5,4.41,10.43.97,5.07.1,14.2.1,14.2Z" fill="#cdaacd" opacity=".9"/>
    <path d="M231.65,311.56c17.52-21.02,14.83-26,15.06-26.31,0,0-5.96,8.5-21.99,14.53-6.14,2.31-21.99,4.55-29.47,4.73,0,0,1.67,10.41,3.9,15.8.63,1.51,1.74,4.57,2.73,7.04,0,0,22.8-7.42,29.77-15.78Z" fill="#cdaacd" opacity=".9"/>
  </g>
  <g id="zone-oreilles-g">
    <path d="M1016.78,276.49c-5.97-1.2-26.15-6.02-38.81-19.64l-5.6-4.99s-1.25-4.63-2.67-6.42-2.32-3.01-2.32-3.01c0,0-1.41-2.95-1.56-8.69-.1-3.94.31-9.35.58-12.36.12-1.37,5.53,11.92,23.27,20.75,8.87,4.42,24.3,8.17,31.62,9.74,0,0-3.85,7.5-4.41,10.43-.97,5.07-.1,14.2-.1,14.2Z" fill="#cdaacd" opacity=".9"/>
    <path d="M1032.9,311.56c-17.52-21.02-14.83-26-15.06-26.31,0,0,5.96,8.5,21.99,14.53,6.14,2.31,21.99,4.55,29.47,4.73,0,0-1.67,10.41-3.9,15.8-.63,1.51-1.74,4.57-2.73,7.04,0,0-22.8-7.42-29.77-15.78Z" fill="#cdaacd" opacity=".9"/>
  </g>
  <g id="zone-ganglions-lympahtiques-d">
    <circle cx="425.25" cy="234.18" r="14.43" fill="#c08198" opacity=".9"/>
    <circle cx="358.19" cy="235.75" r="14.43" fill="#c08198" opacity=".9"/>
    <circle cx="302.35" cy="255.72" r="14.43" fill="#c08198" opacity=".9"/>
    <circle cx="250.33" cy="296.75" r="14.43" fill="#c08198" opacity=".9"/>
  </g>
  <g id="zone-ganglions-lympahtiques-g">
    <circle cx="840.55" cy="234.18" r="14.43" fill="#c08198" opacity=".9"/>
    <circle cx="907.61" cy="235.75" r="14.43" fill="#c08198" opacity=".9"/>
    <circle cx="963.45" cy="255.72" r="14.43" fill="#c08198" opacity=".9"/>
    <circle cx="1015.47" cy="296.75" r="14.43" fill="#c08198" opacity=".9"/>
  </g>
  <g id="zone-dents-machoire-bas-d">
    <path d="M474.89,194.48c-16.66,0-31.57-6.49-32.23-6.78-5.05-2.23-7.34-8.13-5.11-13.19,2.23-5.05,8.11-7.34,13.16-5.12h0c.13.06,13.05,5.6,26,5.05,16.52-.71,22.48-4.55,26.84-7.35l.2-.13c4.65-2.99,10.83-1.64,13.82,3.01,2.99,4.65,1.64,10.83-3.01,13.82l-.2.13c-5.56,3.57-14.87,9.56-36.79,10.5-.9.04-1.79.06-2.68.06Z" fill="#ff92a4" opacity=".9"/>
    <path d="M382.33,178.71c-9,0-16.4-3.36-17.37-3.82-4.99-2.37-7.12-8.33-4.75-13.32,2.36-4.97,8.29-7.1,13.27-4.78,1.65.75,6.85,2.52,11.2,1.72,7.38-1.34,9.69-3.83,11.73-6.02l.11-.11c3.76-4.04,10.09-4.27,14.13-.51,4.04,3.76,4.27,10.09.51,14.13l-.1.11c-3.1,3.34-8.88,9.55-22.8,12.08-2.02.37-4.01.52-5.92.52Z" fill="#ff92a4" opacity=".9"/>
    <path d="M313.43,201c-6.98,0-12.48-1.78-13.32-2.07-5.23-1.78-8.02-7.47-6.23-12.69,1.78-5.21,7.43-8,12.64-6.25,1.73.56,7.09,1.72,11.32.44,7.18-2.17,9.2-4.9,10.97-7.32l.09-.13c3.28-4.44,9.54-5.39,13.98-2.11,4.44,3.28,5.39,9.54,2.11,13.98l-.09.12c-2.7,3.67-7.73,10.49-21.28,14.59-3.5,1.06-7,1.43-10.2,1.43Z" fill="#ff92a4" opacity=".9"/>
    <path d="M255.06,238.59c-4.5,0-7.8-.66-8.44-.8-5.4-1.17-8.83-6.49-7.66-11.89,1.16-5.38,6.46-8.8,11.83-7.67,1.78.36,7.24.89,11.3-.87,6.89-2.99,8.57-5.93,10.06-8.53l.08-.13c2.74-4.79,8.85-6.46,13.65-3.71,4.79,2.74,6.46,8.85,3.71,13.65l-.07.13c-2.26,3.96-6.47,11.32-19.46,16.95-5.24,2.27-10.67,2.89-14.99,2.89Z" fill="#ff92a4" opacity=".9"/>
    <path d="M206.21,292.86c-1.14,0-1.92-.05-2.2-.07-5.51-.41-9.64-5.21-9.23-10.71.41-5.49,5.18-9.62,10.65-9.23,1.81.11,7.3-.12,11.07-2.43,6.4-3.91,7.66-7.06,8.78-9.84l.06-.15c2.05-5.13,7.87-7.62,13-5.57,5.13,2.05,7.62,7.87,5.57,13l-.06.14c-1.69,4.23-4.84,12.1-16.92,19.48-7.78,4.75-16.62,5.38-20.72,5.38Z" fill="#ff92a4" opacity=".9"/>
  </g>
  <g id="zone-dents-machoire-haute-d">
    <path d="M447.72,138.99c-3.17,0-6.28-1.5-8.23-4.3-3.15-4.54-2.02-10.77,2.52-13.92l.16-.11c6.01-4.17,13.84-8.69,30.67-9.47,14.52-.69,27.65,5.34,29.1,6.03,4.99,2.37,7.11,8.34,4.73,13.33-2.37,4.98-8.32,7.1-13.3,4.75-.19-.09-9.96-4.58-19.6-4.12-12.5.58-16.95,3.67-20.2,5.93l-.16.11c-1.74,1.2-3.72,1.78-5.69,1.78Z" fill="#ff92a4" opacity=".9"/>
    <path d="M226.15,237.85c-1.69-1.85-4-2.94-6.52-3.07-.24-.01-.9-.04-1.87-.02-3.71.08-10.88.8-17.22,4.8-9.93,6.26-12.43,12.8-13.77,16.31l-.04.11c-1.83,4.8.64,10.18,5.51,11.99,1.09.4,2.21.6,3.31.6,3.82,0,7.43-2.3,8.85-6.03l.04-.12c.8-2.09,1.62-4.26,6.27-7.19,2.65-1.67,6.74-1.91,7.95-1.87,5.16.25,9.6-3.7,9.88-8.8.13-2.48-.72-4.87-2.4-6.72Z" fill="#ff92a4"/>
    <path d="M274.19,183.42c-1.72-2.12-4.15-3.44-6.86-3.72-.26-.03-.97-.09-2.02-.13-4.03-.12-11.85.28-18.95,4.33-11.13,6.35-14.21,13.41-15.86,17.21l-.05.12c-2.25,5.16.12,11.18,5.28,13.43,1.32.58,2.7.85,4.06.85,3.94,0,7.7-2.29,9.37-6.13l.05-.12c.99-2.28,2.02-4.64,7.26-7.63,2.99-1.71,7.48-1.75,8.8-1.63,5.57.56,10.57-3.52,11.15-9.09.28-2.71-.5-5.37-2.22-7.49Z" fill="#ff92a4"/>
    <path d="M335.57,149.81c-1.2-2.36-3.26-4.12-5.79-4.95-.24-.08-.91-.29-1.91-.54-3.82-.94-11.37-2.18-18.98.19-11.93,3.72-16.32,9.78-18.67,13.04l-.08.1c-3.2,4.43-2.18,10.63,2.28,13.82,1.14.82,2.4,1.36,3.7,1.64,3.76.81,7.82-.58,10.2-3.88l.08-.11c1.42-1.96,2.88-3.98,8.49-5.73,3.21-1,7.5-.12,8.73.27,5.2,1.68,10.81-1.16,12.51-6.32.83-2.51.62-5.2-.58-7.56Z" fill="#ff92a4"/>
    <path d="M404.27,125.36c-.97-2.52-2.86-4.51-5.33-5.62-.24-.11-.89-.39-1.87-.74-3.77-1.36-11.28-3.4-19.23-1.8-12.47,2.51-17.54,8.19-20.27,11.23l-.09.1c-3.71,4.14-3.32,10.53.85,14.23,1.07.95,2.29,1.63,3.57,2.05,3.72,1.22,7.98.23,10.73-2.85l.09-.1c1.64-1.83,3.33-3.73,9.2-4.91,3.35-.68,7.6.67,8.81,1.19,5.09,2.25,11.06-.03,13.33-5.08,1.1-2.45,1.18-5.19.21-7.71Z" fill="#ff92a4"/>
  </g>
  <g id="zone-dents-machoire-bas-g">
    <path d="M790.11,194.48c16.66,0,31.57-6.49,32.23-6.78,5.05-2.23,7.34-8.13,5.11-13.19-2.23-5.05-8.11-7.34-13.16-5.12h0c-.13.06-13.05,5.6-26,5.05-16.52-.71-22.48-4.55-26.84-7.35l-.2-.13c-4.65-2.99-10.83-1.64-13.82,3.01-2.99,4.65-1.64,10.83,3.01,13.82l.2.13c5.56,3.57,14.87,9.56,36.79,10.5.9.04,1.79.06,2.68.06Z" fill="#ff92a4" opacity=".9"/>
    <path d="M882.66,178.71c9,0,16.4-3.36,17.37-3.82,4.99-2.37,7.12-8.33,4.75-13.32-2.36-4.97-8.29-7.1-13.27-4.78-1.65.75-6.85,2.52-11.2,1.72-7.38-1.34-9.69-3.83-11.73-6.02l-.11-.11c-3.76-4.04-10.09-4.27-14.13-.51-4.04,3.76-4.27,10.09-.51,14.13l.1.11c3.1,3.34,8.88,9.55,22.8,12.08,2.02.37,4.01.52,5.92.52Z" fill="#ff92a4" opacity=".9"/>
    <path d="M951.56,201c6.98,0,12.48-1.78,13.32-2.07,5.23-1.78,8.02-7.47,6.23-12.69-1.78-5.21-7.43-8-12.64-6.25-1.73.56-7.09,1.72-11.32.44-7.18-2.17-9.2-4.9-10.97-7.32l-.09-.13c-3.28-4.44-9.54-5.39-13.98-2.11-4.44,3.28-5.39,9.54-2.11,13.98l.09.12c2.7,3.67,7.73,10.49,21.28,14.59,3.5,1.06,7,1.43,10.2,1.43Z" fill="#ff92a4" opacity=".9"/>
    <path d="M1009.93,238.59c4.5,0,7.8-.66,8.44-.8,5.4-1.17,8.83-6.49,7.66-11.89-1.16-5.38-6.46-8.8-11.83-7.67-1.78.36-7.24.89-11.3-.87-6.89-2.99-8.57-5.93-10.06-8.53l-.08-.13c-2.74-4.79-8.85-6.46-13.65-3.71-4.79,2.74-6.46,8.85-3.71,13.65l.07.13c2.26,3.96,6.47,11.32,19.46,16.95,5.24,2.27,10.67,2.89,14.99,2.89Z" fill="#ff92a4" opacity=".9"/>
    <path d="M1058.78,292.86c1.14,0,1.92-.05,2.2-.07,5.51-.41,9.64-5.21,9.23-10.71-.41-5.49-5.18-9.62-10.65-9.23-1.81.11-7.3-.12-11.07-2.43-6.4-3.91-7.66-7.06-8.78-9.84l-.06-.15c-2.05-5.13-7.87-7.62-13-5.57-5.13,2.05-7.62,7.87-5.57,13l.06.14c1.69,4.23,4.84,12.1,16.92,19.48,7.78,4.75,16.62,5.38,20.72,5.38Z" fill="#ff92a4" opacity=".9"/>
  </g>
  <g id="zone-dents-machoire-haute-g">
    <path d="M817.27,138.99c3.17,0,6.28-1.5,8.23-4.3,3.15-4.54,2.02-10.77-2.52-13.92l-.16-.11c-6.01-4.17-13.84-8.69-30.67-9.47-14.52-.69-27.65,5.34-29.1,6.03-4.99,2.37-7.11,8.34-4.73,13.33,2.37,4.98,8.32,7.1,13.3,4.75.19-.09,9.96-4.58,19.6-4.12,12.5.58,16.95,3.67,20.2,5.93l.16.11c1.74,1.2,3.72,1.78,5.69,1.78Z" fill="#ff92a4" opacity=".9"/>
    <path d="M1038.85,237.85c1.69-1.85,4-2.94,6.52-3.07.24-.01.9-.04,1.87-.02,3.71.08,10.88.8,17.22,4.8,9.93,6.26,12.43,12.8,13.77,16.31l.04.11c1.83,4.8-.64,10.18-5.51,11.99-1.09.4-2.21.6-3.31.6-3.82,0-7.43-2.3-8.85-6.03l-.04-.12c-.8-2.09-1.62-4.26-6.27-7.19-2.65-1.67-6.74-1.91-7.95-1.87-5.16.25-9.6-3.7-9.88-8.8-.13-2.48.72-4.87,2.4-6.72Z" fill="#ff92a4"/>
    <path d="M990.8,183.42c1.72-2.12,4.15-3.44,6.86-3.72.26-.03.97-.09,2.02-.13,4.03-.12,11.85.28,18.95,4.33,11.13,6.35,14.21,13.41,15.86,17.21l.05.12c2.25,5.16-.12,11.18-5.28,13.43-1.32.58-2.7.85-4.06.85-3.94,0-7.7-2.29-9.37-6.13l-.05-.12c-.99-2.28-2.02-4.64-7.26-7.63-2.99-1.71-7.48-1.75-8.8-1.63-5.57.56-10.57-3.52-11.15-9.09-.28-2.71.5-5.37,2.22-7.49Z" fill="#ff92a4"/>
    <path d="M929.43,149.81c1.2-2.36,3.26-4.12,5.79-4.95.24-.08.91-.29,1.91-.54,3.82-.94,11.37-2.18,18.98.19,11.93,3.72,16.32,9.78,18.67,13.04l.08.1c3.2,4.43,2.18,10.63-2.28,13.82-1.14.82-2.4,1.36-3.7,1.64-3.76.81-7.82-.58-10.2-3.88l-.08-.11c-1.42-1.96-2.88-3.98-8.49-5.73-3.21-1-7.5-.12-8.73.27-5.2,1.68-10.81-1.16-12.51-6.32-.83-2.51-.62-5.2.58-7.56Z" fill="#ff92a4"/>
    <path d="M860.73,125.36c.97-2.52,2.86-4.51,5.33-5.62.24-.11.89-.39,1.87-.74,3.77-1.36,11.28-3.4,19.23-1.8,12.47,2.51,17.54,8.19,20.27,11.23l.09.1c3.71,4.14,3.32,10.53-.85,14.23-1.07.95-2.29,1.63-3.57,2.05-3.72,1.22-7.98.23-10.73-2.85l-.09-.1c-1.64-1.83-3.33-3.73-9.2-4.91-3.35-.68-7.6.67-8.81,1.19-5.09,2.25-11.06-.03-13.33-5.08-1.1-2.45-1.18-5.19-.21-7.71Z" fill="#ff92a4"/>
  </g>
  <g id="zone-bouche-d">
    <circle cx="529.59" cy="151.44" r="16.45" fill="#b25464" opacity=".9"/>
  </g>
  <g id="zone-bouche-g">
    <circle cx="735" cy="151.44" r="16.45" fill="#b25464" opacity=".9"/>
  </g>
  <g id="zone-coronal-g">
    <circle cx="794.38" cy="110.13" r="17.09" fill="#ff736d" opacity=".9"/>
  </g>
  <g id="zone-coronal-d">
    <circle cx="468.44" cy="110.13" r="17.09" fill="#ff736d" opacity=".9"/>
  </g>
  <g id="zone-colonne-vertebrale-contour-d">
    <path d="M223.9,471.26c9.31,24.31,28.41,39.81,41.95,83.29,9.4,26.65,12.25,54.35,21.53,79.33,3.86,10.54,9.09,20.53,15.56,29.71,20.36,28.57,52.92,49.97,87.65,55.69,24.76,3.98,50.08-2.13,70.3-16.97,21.09-15.21,36.01-38.15,40.19-63.93,5.14-31.67-20.18-90.31-18.32-92.01.04-.04.09-.08.08-.14-1.95-12.56-3.55-21.5-4.45-34.44-2.91-41.71,8.69-81.01,28.18-117.58,11.4-21.39,20.27-36.21,24.56-60.66,5.1-29.11-5.98-52.54-6.79-81-.28-9.71,3.89-39.32,12.34-51.95-2.98,13.09-1.74,30.18.68,43.62,3.56,25.08,7.64,34.45,11.62,51.78,3.17,13.65,1.14,31.74-1.55,45.41-3.71,18.83-14.48,35.77-23.9,52.41-15.12,26.7-25.46,55.01-28.81,85.76-2.97,26.82-.78,53.97,6.44,79.97,4.94,17.97,13.2,29.69,17.44,44.97,12.55,45.24-5,89.02-40.88,117.85-23.11,18.76-52.8,27.42-82.37,24.04-45.78-5.19-84.48-34.34-109.37-72.02-16.31-27.24-18.38-43.03-25.73-73.37-3.68-15.77-8.06-31.37-13.13-46.75-8.86-26.45-13.76-56.18-23.24-83.02Z" fill="#c8d8dc" opacity=".9"/>
  </g>
  <g id="zone-colonne-vertebrale-contour-g">
    <path d="M1017,554.28c-5.07,15.38-9.45,30.98-13.13,46.75-7.35,30.34-9.43,46.13-25.73,73.37-24.89,37.68-63.58,66.83-109.37,72.02-29.57,3.39-59.26-5.28-82.37-24.04-35.88-28.84-53.43-72.62-40.88-117.85,4.24-15.28,12.51-27,17.44-44.97,7.23-26,9.41-53.15,6.44-79.97-3.35-30.74-13.69-59.06-28.81-85.76-9.42-16.64-20.19-33.58-23.9-52.41-2.7-13.68-4.72-31.76-1.55-45.41,3.99-17.33,8.06-26.7,11.62-51.78,2.41-13.44,3.66-30.53.68-43.62,8.45,12.63,12.62,42.24,12.34,51.95-.81,28.46-11.89,51.89-6.79,81,4.29,24.45,13.15,39.27,24.56,60.66,19.49,36.57,31.1,75.87,28.18,117.58-.9,12.93-2.51,21.87-4.45,34.44,0,.06.03.1.08.14,1.86,1.69-23.46,60.34-18.32,92.01,4.19,25.78,19.1,48.72,40.19,63.93,20.22,14.83,45.54,20.95,70.3,16.97,34.73-5.73,67.28-27.13,87.65-55.69,6.47-9.17,11.7-19.16,15.56-29.71,9.28-24.98,12.14-52.67,21.53-79.33,13.53-43.48,32.64-58.98,41.95-83.29-9.47,26.84-14.38,56.57-23.24,83.02Z" fill="#c8d8dc" opacity=".9"/>
  </g>
  <g id="zone-colonne-vertebrale-nerf-vague-d">
    <path d="M376,741.26c7.33,3.75,10.99,4.21,19.36,5.16,29.57,3.39,59.26-5.28,82.37-24.04,35.88-28.84,53.43-72.62,40.88-117.85-4.24-15.28-12.51-27-17.44-44.97-7.23-26-9.41-53.15-6.44-79.97,3.35-30.74,13.69-59.06,28.81-85.76,9.42-16.64,20.19-33.58,23.9-52.41,2.7-13.68,4.72-31.76,1.55-45.41-3.99-17.33-8.06-26.7-11.62-51.78-2.41-13.44-3.66-30.53-.68-43.62-8.45,12.63-12.62,42.24-12.34,51.95.81,28.46,11.89,51.89,6.79,81-4.29,24.45-13.15,39.27-24.56,60.66-19.49,36.57-31.1,75.87-28.18,117.58.9,12.93,2.51,21.87,4.45,34.44,0,.06-.03.1-.08.14-1.86,1.69,23.46,60.34,18.32,92.01-4.19,25.78-19.1,48.72-40.19,63.93-20.22,14.83-45.54,20.95-70.3,16.97-13.05-2.15-26-6.12-37.69-12.64-8.12-4.53-11.87,2.18-8.64,7.88s22.19,21.84,31.75,26.74Z" fill="#c8d8dc" opacity=".9"/>
  </g>
  <g id="zone-colonne-vertebrale-nerf-vague-g">
    <path d="M888.52,741.26c-7.33,3.75-10.99,4.21-19.36,5.16-29.57,3.39-59.26-5.28-82.37-24.04-35.88-28.84-53.43-72.62-40.88-117.85,4.24-15.28,12.51-27,17.44-44.97,7.23-26,9.41-53.15,6.44-79.97-3.35-30.74-13.69-59.06-28.81-85.76-9.42-16.64-20.19-33.58-23.9-52.41-2.7-13.68-4.72-31.76-1.55-45.41,3.99-17.33,8.06-26.7,11.62-51.78,2.41-13.44,3.66-30.53.68-43.62,8.45,12.63,12.62,42.24,12.34,51.95-.81,28.46-11.89,51.89-6.79,81,4.29,24.45,13.15,39.27,24.56,60.66,19.49,36.57,31.1,75.87,28.18,117.58-.9,12.93-2.51,21.87-4.45,34.44,0,.06.03.1.08.14,1.86,1.69-23.46,60.34-18.32,92.01,4.19,25.78,19.1,48.72,40.19,63.93,20.22,14.83,45.54,20.95,70.3,16.97,13.05-2.15,26-6.12,37.69-12.64,8.12-4.53,11.87,2.18,8.64,7.88s-22.19,21.84-31.75,26.74Z" fill="#c8d8dc" opacity=".9"/>
  </g>
  <g id="zone-sacrum-lombaire-d">
    <path d="M497.03,703.33c25.64-24.43,31.62-62.64,21.59-98.8-4.24-15.28-11.51-28-16.44-45.97-5.42-19.5-8.41-39.65-8.71-59.82-.18-12.34,2.27-28.99,3.67-41.77,1.2-10.91-11.11-13.07-11.11-13.07-.91,3.12-1.74,6.25-2.5,9.41-4.58,18.92-6.54,38.43-5.14,58.5.9,12.93,2.51,21.87,4.45,34.44,0,.06-.03.1-.08.14-1.86,1.69,23.46,60.34,18.32,92.01-4.19,25.78-19.1,48.72-40.19,63.93-4.16,3.05-8.49,5.81-13.07,8.03-3.76,1.82-3.83,11.4,9.46,11.67s31.52-10.84,39.75-18.68Z" fill="#c8d8dc" opacity=".9"/>
  </g>
  <g id="zone-sacrum-lombaire-g">
    <path d="M767.42,703.33c-25.64-24.43-31.62-62.64-21.59-98.8,4.24-15.28,11.51-28,16.44-45.97,5.42-19.5,8.41-39.65,8.71-59.82.18-12.34-2.27-28.99-3.67-41.77-1.2-10.91,11.11-13.07,11.11-13.07.91,3.12,1.74,6.25,2.5,9.41,4.58,18.92,6.54,38.43,5.14,58.5-.9,12.93-2.51,21.87-4.45,34.44,0,.06.03.1.08.14,1.86,1.69-23.46,60.34-18.32,92.01,4.19,25.78,19.1,48.72,40.19,63.93,4.16,3.05,8.49,5.81,13.07,8.03,3.76,1.82,3.83,11.4-9.46,11.67s-31.52-10.84-39.75-18.68Z" fill="#c8d8dc" opacity=".9"/>
  </g>
  <g id="zone-colonne-vertebrale-d">
    <path d="M496.31,592.74c-6-23.87-14.66-45.35-13.54-46.37.04-.04.09-.08.08-.14-1.95-12.56-3.55-21.5-4.45-34.44-2.91-41.71,8.69-81.01,28.18-117.58,11.4-21.39,20.27-36.21,24.56-60.66,5.1-29.11-5.98-52.54-6.79-81-.28-9.71,3.89-39.32,12.34-51.95-2.98,13.09-1.74,30.18.68,43.62,3.56,25.08,7.64,34.45,11.62,51.78,3.17,13.65,1.14,31.74-1.55,45.41-3.71,18.83-14.48,35.77-23.9,52.41-15.12,26.7-25.46,55.01-28.81,85.76-2.97,26.82-5.65,87.15,1.58,113.15Z" fill="#c8d8dc" opacity=".9"/>
  </g>
  <g id="zone-colonne-vertebrale-g">
    <path d="M769.4,479.59c-3.35-30.74-13.69-59.06-28.81-85.76-9.42-16.64-20.19-33.58-23.9-52.41-2.7-13.68-4.72-31.76-1.55-45.41,3.99-17.33,8.06-26.7,11.62-51.78,2.41-13.44,3.66-30.53.68-43.62,8.45,12.63,12.62,42.24,12.34,51.95-.81,28.46-11.89,51.89-6.79,81,4.29,24.45,13.15,39.27,24.56,60.66,19.49,36.57,31.1,75.87,28.18,117.58-.9,12.93-2.51,21.87-4.45,34.44,0,.06.03.1.08.14,1.12,1.01-7.54,22.5-13.54,46.37,7.23-26,4.55-86.33,1.58-113.15Z" fill="#c8d8dc" opacity=".9"/>
  </g>
  <g id="zone-point-conception-d">
    <circle cx="532.61" cy="214.43" r="14.24" fill="#acb9bc" opacity=".9"/>
  </g>
  <g id="zone-point-conception-g">
    <circle cx="730.97" cy="214.43" r="14.24" fill="#acb9bc" opacity=".9"/>
  </g>
  <g id="zone-hypophyse-d">
    <circle cx="474.95" cy="160.24" r="17.09" fill="#d9a5e0"/>
  </g>
  <g id="zone-hypophyse-g">
    <circle cx="790.45" cy="160.24" r="17.09" fill="#d9a5e0"/>
  </g>
  <g id="zone-epiphyse-d">
    <circle cx="434.1" cy="169.34" r="17.09" fill="#7d5184" opacity=".9"/>
  </g>
  <g id="zone-epiphyse-g">
    <circle cx="830.22" cy="169.34" r="17.09" fill="#7d5184" opacity=".9"/>
  </g>
  <g id="zone-rein-d">
    <circle cx="378.11" cy="513.47" r="19.01" fill="#ff9585" opacity=".9"/>
  </g>
  <g id="zone-rein-g">
    <circle cx="888.12" cy="513.47" r="19.01" fill="#ff9585" opacity=".9"/>
  </g>
  <g id="zone-systeme-urinaire-d">
    <circle cx="378.11" cy="513.47" r="19.01" fill="#ff9585" opacity=".9"/>
    <circle cx="507.18" cy="556.38" r="19.01" fill="#ff9585" opacity=".9"/>
    <line x1="503.61" y1="556.38" x2="378.11" y2="513.47" fill="none" opacity=".9" stroke="#ff9585" stroke-linecap="round" stroke-miterlimit="10" stroke-width="25"/>
  </g>
  <g id="zone-systeme-urinaire-g">
    <circle cx="887.54" cy="513.47" r="19.01" fill="#ff9585" opacity=".9"/>
    <circle cx="758.47" cy="556.38" r="19.01" fill="#ff9585" opacity=".9"/>
    <line x1="762.04" y1="556.38" x2="887.54" y2="513.47" fill="none" opacity=".9" stroke="#ff9585" stroke-linecap="round" stroke-miterlimit="10" stroke-width="25"/>
  </g>
  <g id="zone-vessie-d">
    <circle cx="507.42" cy="556.38" r="19.01" fill="#ff896d" opacity=".9"/>
  </g>
  <g id="zone-vessie-g">
    <circle cx="758.47" cy="556.38" r="19.01" fill="#ff896d" opacity=".9"/>
  </g>
  <g id="zone-epaule-g">
    <circle cx="1059.24" cy="357.88" r="19.01" fill="#71c5ff" opacity=".9"/>
  </g>
  <g id="zone-epaule-d">
    <circle cx="204.28" cy="357.88" r="19.01" fill="#71c5ff" opacity=".9"/>
  </g>
  <g id="zone-hanche-d">
    <circle cx="266.83" cy="603.05" r="19.01" fill="#92aaff" opacity=".9"/>
  </g>
  <g id="zone-hanche-g">
    <circle cx="998.17" cy="603.05" r="19.01" fill="#92aaff" opacity=".9"/>
  </g>
  <g id="zone-plexus-solaire-d">
    <circle cx="376.74" cy="401.1" r="32.49" fill="#ffd255" opacity=".9"/>
  </g>
  <g id="zone-plexus-solaire-g">
    <circle cx="887.54" cy="401.1" r="32.49" fill="#ffd255" opacity=".9"/>
  </g>
</svg>