<?xml version="1.0" encoding="UTF-8"?>
<svg id="Calque_1" xmlns="http://www.w3.org/2000/svg" version="1.1" viewBox="0 0 85.04 85.04">
  <!-- Generator: Adobe Illustrator 29.8.10, SVG Export Plug-In . SVG Version: 2.1.1 Build 2)  -->
  <path d="M83.02,15.41c.03-.92-.39-3.8-1.46-4.55-4.34-1.29-14.02-.78-18.19-.77l-26.98.02h-20.03c-3.38,0-8.38-.15-11.67.09-3.8,2.31-2.49,7.78-2.4,11.78.22,10.12-1.86,20.68,4.72,29.34,6.22,8.52,14.58,19.19,24.57,23.34,2.46.89,18.27-.05,21.9,0,3.12.04,12.53-9.03,15.26-11.8,5.34-5.89,12.76-14.24,13.75-22.24.98-7.94.28-17.12.52-25.21ZM10.06,43.6c9.93,2.64,14.3,10.18,16.32,19.65-4.57-2.06-13.99-14.84-16.32-19.65ZM59.27,63.21h-.27s-.16-.35-.16-.35c2.16-9.85,5.81-15.62,15.59-19.14l.42.13c-2.32,5.96-10.73,15.04-15.58,19.36ZM57.2,49.38c-3.97,6.34-4.87,12.01-5.29,19.27-6.15.03-12.31.03-18.47-.02-.51-2.09-.64-4.73-1-6.88-2.18-13.09-10.67-22.59-23.81-25.16l-.02-20.19c7.3-.28,16.17-.05,23.57-.05l44.36.03v20.21c-8.78,1.69-14.18,5.75-19.35,12.8Z"/>
</svg>